<?xml version="1.0" encoding="iso-8859-1"?>
<!-- Generator: Adobe Illustrator 19.0.0, SVG Export Plug-In . SVG Version: 6.00 Build 0)  -->
<svg version="1.1" id="Capa_1" xmlns="http://www.w3.org/2000/svg" xmlns:xlink="http://www.w3.org/1999/xlink" x="0px" y="0px"
	 viewBox="0 0 512 512" style="enable-background:new 0 0 512 512;" xml:space="preserve">
<g>
	<g>
		<path d="M382.944,364.967c-57.189-10.411-109.371-40.652-146.934-85.152c-59.385-70.352-75.562-167.434-42.217-253.361
			c2.862-7.378,1.007-15.665-4.726-21.115c-5.753-5.468-13.822-6.853-21.056-3.613c-23.479,10.511-45.36,24.424-65.037,41.351
			c-21.8,18.753-40.285,40.603-54.942,64.942c-2.181,3.619-1.014,8.319,2.605,10.498c3.619,2.18,8.319,1.012,10.498-2.606
			c13.817-22.943,31.25-43.546,51.814-61.237c18.555-15.962,39.183-29.079,61.311-38.986c2.064-0.924,3.559,0.066,4.267,0.739
			c0.604,0.573,1.909,2.159,1.003,4.492c-35.37,91.148-18.208,194.131,44.79,268.763c39.848,47.207,95.209,79.289,155.884,90.335
			c0.463,0.084,0.924,0.125,1.379,0.125c3.625,0,6.844-2.587,7.516-6.28C389.855,369.706,387.1,365.724,382.944,364.967z"/>
	</g>
</g>
<g>
	<g>
		<path d="M498.708,372.166c-4.408-6.565-12.265-9.781-20.018-8.2c-19.318,3.946-39.131,5.611-58.893,4.951
			c-4.245-0.158-7.759,3.167-7.9,7.388c-0.141,4.222,3.167,7.759,7.388,7.9c20.961,0.701,41.974-1.066,62.466-5.252
			c2.445-0.498,3.793,1.05,4.256,1.74c0.545,0.812,1.271,2.456,0.009,4.342c-13.033,19.48-28.804,37.093-46.875,52.346
			c-51.321,43.321-116.448,64.063-183.36,58.405C188.86,490.13,128.148,458.75,84.827,407.43
			C54.185,371.128,34.465,327.331,27.8,280.776c-6.49-45.34-0.469-91.561,17.415-133.666c1.651-3.888-0.162-8.379-4.05-10.031
			c-3.888-1.651-8.379,0.162-10.031,4.05C12.16,185.803,5.771,234.841,12.657,282.943c7.072,49.398,27.985,95.857,60.481,134.354
			c45.956,54.443,110.362,87.731,181.355,93.733c7.669,0.648,15.308,0.97,22.917,0.97c62.823-0.002,123.038-21.937,171.6-62.928
			c19.164-16.177,35.893-34.86,49.722-55.53C503.143,386.949,503.134,378.758,498.708,372.166z"/>
	</g>
</g>
<g>
</g>
<g>
</g>
<g>
</g>
<g>
</g>
<g>
</g>
<g>
</g>
<g>
</g>
<g>
</g>
<g>
</g>
<g>
</g>
<g>
</g>
<g>
</g>
<g>
</g>
<g>
</g>
<g>
</g>
</svg>
