<?xml version="1.0" encoding="iso-8859-1"?>
<!-- Generator: Adobe Illustrator 19.0.0, SVG Export Plug-In . SVG Version: 6.00 Build 0)  -->
<svg version="1.1" id="Layer_1" xmlns="http://www.w3.org/2000/svg" xmlns:xlink="http://www.w3.org/1999/xlink" x="0px" y="0px"
	 viewBox="0 0 512 512" style="enable-background:new 0 0 512 512;" xml:space="preserve">
<path id="SVGCleanerId_0" style="fill:#F7D64C;" d="M206.009,380.146h35.21c4.046,0,6.238,4.737,3.619,7.821l-97.477,114.777
	c-2.372,2.792-6.91,0.633-6.237-2.969l13.798-73.96H119.71c-4.046,0-6.238-4.737-3.619-7.821l97.478-114.778
	c2.372-2.792,6.908-0.633,6.237,2.969L206.009,380.146z"/>
<g>
	<path id="SVGCleanerId_0_1_" style="fill:#F7D64C;" d="M206.009,380.146h35.21c4.046,0,6.238,4.737,3.619,7.821l-97.477,114.777
		c-2.372,2.792-6.91,0.633-6.237-2.969l13.798-73.96H119.71c-4.046,0-6.238-4.737-3.619-7.821l97.478-114.778
		c2.372-2.792,6.908-0.633,6.237,2.969L206.009,380.146z"/>
</g>
<path style="opacity:0.1;enable-background:new    ;" d="M213.568,303.217l-42.687,50.263h40.102l8.821-47.294
	C220.477,302.584,215.94,300.425,213.568,303.217z"/>
<path style="opacity:0.1;enable-background:new    ;" d="M146.219,495.841l13.734-73.619c0.17-0.91-0.529-1.75-1.454-1.75h-34.104
	c-3.921,0-6.13-4.365-4.043-7.495l-4.263,5.019c-2.619,3.085-0.427,7.821,3.619,7.821h35.212l-13.798,73.96
	c-0.672,3.602,3.865,5.761,6.237,2.969l2.201-2.592C147.58,499.999,145.772,498.233,146.219,495.841z"/>
<path style="opacity:0.3;fill:#FFFFFF;enable-background:new    ;" d="M241.219,380.146h-19.388
	c2.184,7.146,8.829,12.344,16.69,12.344c0.9,0,1.782-0.068,2.645-0.2l3.672-4.323C247.457,384.883,245.266,380.146,241.219,380.146z
	"/>
<path id="SVGCleanerId_1" style="fill:#F7D64C;" d="M351.076,364.978h23.271c2.675,0,4.122,3.131,2.392,5.17l-64.426,75.859
	c-1.568,1.846-4.566,0.418-4.122-1.962l9.119-48.882h-23.274c-2.675,0-4.122-3.131-2.392-5.17l64.426-75.86
	c1.568-1.846,4.566-0.418,4.122,1.962L351.076,364.978z"/>
<g>
	<path id="SVGCleanerId_1_1_" style="fill:#F7D64C;" d="M351.076,364.978h23.271c2.675,0,4.122,3.131,2.392,5.17l-64.426,75.859
		c-1.568,1.846-4.566,0.418-4.122-1.962l9.119-48.882h-23.274c-2.675,0-4.122-3.131-2.392-5.17l64.426-75.86
		c1.568-1.846,4.566-0.418,4.122,1.962L351.076,364.978z"/>
</g>
<path style="opacity:0.1;enable-background:new    ;" d="M356.072,314.133l-33.416,39.346h30.564l6.973-37.385
	C360.638,313.715,357.639,312.288,356.072,314.133z"/>
<path style="opacity:0.1;enable-background:new    ;" d="M311.558,441.443l9.077-48.657c0.113-0.601-0.349-1.157-0.961-1.157h-22.54
	c-2.592,0-4.051-2.885-2.671-4.954l-2.817,3.317c-1.731,2.038-0.283,5.17,2.392,5.17h23.274l-9.119,48.882
	c-0.444,2.38,2.555,3.808,4.122,1.962l1.455-1.713C312.459,444.191,311.264,443.024,311.558,441.443z"/>
<path style="opacity:0.3;fill:#FFFFFF;enable-background:new    ;" d="M374.347,364.978h-12.814
	c1.444,4.724,5.836,8.159,11.031,8.159c0.594,0,1.178-0.046,1.748-0.132l2.427-2.857
	C378.47,368.109,377.021,364.978,374.347,364.978z"/>
<path style="fill:#D5EBEF;" d="M450.549,146.565c0.527-3.469,0.802-7.02,0.802-10.637c0-38.799-31.453-70.253-70.253-70.253
	c-8.178,0-16.023,1.412-23.323,3.981c-21.192-36.865-60.966-61.691-106.54-61.691c-54.624,0-100.908,35.668-116.858,84.981
	C67.05,93.525,12.648,148.273,12.648,215.736c0,67.821,54.98,122.802,122.802,122.802h260.018
	c57.374,0,103.885-46.511,103.885-103.885C499.352,197.513,479.859,164.932,450.549,146.565z"/>
<path style="fill:#E66A8C;" d="M276.709,236.026c-11.438,0-20.708-9.272-20.708-20.709c0,11.438-9.272,20.709-20.709,20.709
	c-4.542,0-8.729-1.48-12.144-3.96v12.916c0,18.144,14.708,32.852,32.852,32.852c18.144,0,32.852-14.708,32.852-32.852v-12.916
	C285.439,234.546,281.252,236.026,276.709,236.026z"/>
<path style="opacity:0.1;enable-background:new    ;" d="M419.122,314.883H159.104c-67.821,0-122.802-54.981-122.802-122.802
	c0-18.154,1.833-37.523,5.82-56.152c-18.374,21.462-29.472,49.336-29.472,79.806c0,67.821,54.98,122.802,122.802,122.802h260.018
	c34.724,0,65.464-17.041,84.328-43.211C462.725,307.631,441.771,314.883,419.122,314.883z"/>
<path d="M459.034,142.613c0.189-2.223,0.284-4.458,0.284-6.684c0-43.13-35.089-78.219-78.219-78.219
	c-6.689,0-13.301,0.848-19.731,2.525C337.415,22.924,295.789,0,251.234,0c-55.03,0-103.595,33.983-122.582,85.149
	c-32.561,1.66-62.934,15.206-86.042,38.499c-24.458,24.654-37.928,57.358-37.928,92.087c0,72.106,58.662,130.769,130.768,130.769
	h30.905l-56.336,66.335c-3.245,3.821-3.953,9.02-1.848,13.568c2.105,4.549,6.527,7.376,11.54,7.376h25.622l-12.039,64.533
	c-0.973,5.217,1.593,10.254,6.385,12.536c1.625,0.773,3.334,1.148,5.019,1.148c3.281,0,6.467-1.424,8.738-4.098l97.477-114.777
	c3.245-3.821,3.953-9.02,1.848-13.568c-2.105-4.549-6.527-7.376-11.54-7.376h-25.621l4.789-25.676h97.741l-32.555,38.332
	c-2.834,3.337-3.452,7.878-1.615,11.851c1.838,3.974,5.7,6.442,10.078,6.442h13.683l-7.361,39.456
	c-0.857,4.597,1.493,9.21,5.716,11.22c1.418,0.674,2.929,1.001,4.428,1.001c2.964,0,5.872-1.275,7.881-3.641l64.426-75.86
	c2.833-3.337,3.451-7.878,1.613-11.851c-1.839-3.973-5.701-6.441-10.078-6.441h-13.681l1.96-10.508h32.843
	c61.675,0,111.851-50.176,111.851-111.851C507.318,197.584,489.364,163.548,459.034,142.613z M234.263,388.113l-82.277,96.88
	l10.767-57.715c0.434-2.328-0.19-4.73-1.704-6.552c-1.514-1.822-3.759-2.876-6.128-2.876h-28.256l60.593-71.347h16.922
	l-6.003,32.182c-0.434,2.328,0.19,4.73,1.704,6.552c1.514,1.822,3.759,2.876,6.128,2.876L234.263,388.113L234.263,388.113z
	 M363.912,372.944L319.89,424.78l5.253-28.156c0.434-2.328-0.19-4.73-1.703-6.552c-1.513-1.822-3.759-2.875-6.128-2.875h-12.838
	l34.559-40.692h7.385l-3.174,17.013c-0.434,2.328,0.19,4.73,1.703,6.552c1.514,1.822,3.759,2.875,6.128,2.875H363.912z
	 M395.468,330.571H135.45c-63.32,0-114.835-51.515-114.835-114.836c0-30.497,11.828-59.216,33.306-80.865
	c21.465-21.636,50.062-33.696,80.525-33.957c3.43-0.029,6.456-2.251,7.512-5.514c15.371-47.532,59.287-79.466,109.276-79.466
	c40.999,0,79.177,22.107,99.634,57.695c1.914,3.329,5.931,4.819,9.552,3.545c6.654-2.342,13.611-3.53,20.678-3.53
	c34.345,0,62.286,27.942,62.286,62.286c0,3.156-0.239,6.332-0.712,9.441c-0.476,3.139,0.956,6.26,3.646,7.946
	c28.219,17.682,45.066,48.089,45.066,81.337C491.386,287.542,448.358,330.571,395.468,330.571z M175.503,168.658l-21.775-12.417
	c-3.822-2.179-8.688-0.847-10.866,2.974c-2.18,3.822-0.848,8.688,2.974,10.866l6.724,3.833c-0.114,0.536-0.176,1.092-0.176,1.662
	v8.796c0,4.4,3.567,7.966,7.966,7.966c4.4,0,7.966-3.567,7.966-7.966v-1.534c1.045,0.467,2.145,0.705,3.234,0.705
	c2.768,0,5.459-1.445,6.928-4.021C180.657,175.702,179.325,170.836,175.503,168.658z M297.418,207.35
	c-4.4,0-7.966,3.567-7.966,7.966c0,7.026-5.716,12.743-12.742,12.743s-12.743-5.717-12.743-12.743c0-4.4-3.567-7.966-7.966-7.966
	c-4.4,0-7.966,3.567-7.966,7.966c0,7.026-5.717,12.743-12.743,12.743c-7.026,0-12.742-5.717-12.742-12.743
	c0-4.4-3.567-7.966-7.966-7.966c-4.4,0-7.966,3.567-7.966,7.966c0,7.983,3.282,15.213,8.565,20.416v9.25
	c0,22.508,18.311,40.819,40.819,40.819s40.819-18.311,40.819-40.819v-9.249c5.282-5.204,8.565-12.433,8.565-20.416
	C305.385,210.917,301.818,207.35,297.418,207.35z M280.886,244.982c0,13.722-11.164,24.886-24.886,24.886
	s-24.886-11.164-24.886-24.886v-1.298c1.364,0.2,2.758,0.308,4.178,0.308c8.133,0,15.486-3.403,20.709-8.86
	c5.224,5.457,12.576,8.86,20.709,8.86c1.419,0,2.813-0.107,4.178-0.308v1.298H280.886z M358.273,156.241l-21.775,12.417
	c-3.822,2.18-5.154,7.044-2.974,10.866c1.469,2.577,4.158,4.021,6.928,4.021c1.09,0,2.189-0.238,3.234-0.705v1.534
	c0,4.4,3.567,7.966,7.966,7.966s7.966-3.567,7.966-7.966v-8.796c0-0.57-0.063-1.126-0.176-1.662l6.724-3.833
	c3.822-2.18,5.154-7.044,2.974-10.866C366.959,155.393,362.095,154.061,358.273,156.241z"/>
<g>
</g>
<g>
</g>
<g>
</g>
<g>
</g>
<g>
</g>
<g>
</g>
<g>
</g>
<g>
</g>
<g>
</g>
<g>
</g>
<g>
</g>
<g>
</g>
<g>
</g>
<g>
</g>
<g>
</g>
</svg>
