<?xml version="1.0" encoding="iso-8859-1"?>
<!-- Generator: Adobe Illustrator 19.0.0, SVG Export Plug-In . SVG Version: 6.00 Build 0)  -->
<svg version="1.1" id="Layer_1" xmlns="http://www.w3.org/2000/svg" xmlns:xlink="http://www.w3.org/1999/xlink" x="0px" y="0px"
	 viewBox="0 0 512 512" style="enable-background:new 0 0 512 512;" xml:space="preserve">
<path style="fill:#D5EBEF;" d="M454.173,228.816c0.537-3.534,0.817-7.152,0.817-10.835c0-39.522-32.039-71.561-71.561-71.561
	c-8.331,0-16.322,1.438-23.758,4.055c-21.586-37.552-62.102-62.841-108.525-62.841c-55.641,0-102.788,36.333-119.034,86.564
	C63.53,174.788,8.115,230.556,8.115,299.275c0,69.085,56.004,125.09,125.09,125.09h264.862c58.443,0,105.82-47.377,105.82-105.82
	C503.885,280.713,484.029,247.524,454.173,228.816z"/>
<path style="opacity:0.1;enable-background:new    ;" d="M422.16,400.27H157.298c-69.085,0-125.09-56.005-125.09-125.09
	c0-18.492,1.867-38.222,5.928-57.198c-18.715,21.862-30.021,50.255-30.021,81.293c0,69.085,56.004,125.09,125.09,125.09h264.862
	c35.371,0,66.684-17.358,85.899-44.016C466.576,392.882,445.232,400.27,422.16,400.27z"/>
<path d="M298.189,301.013c-4.482,0-8.115,3.633-8.115,8.115c0,7.157-5.822,12.98-12.979,12.98s-12.98-5.823-12.98-12.98
	c0-4.482-3.633-8.115-8.115-8.115c-4.482,0-8.115,3.633-8.115,8.115c0,7.157-5.823,12.98-12.98,12.98s-12.979-5.823-12.979-12.98
	c0-4.482-3.633-8.115-8.115-8.115c-4.482,0-8.115,3.633-8.115,8.115c0,16.106,13.103,29.21,29.209,29.21
	c8.285,0,15.774-3.467,21.095-9.025c5.321,5.559,12.811,9.025,21.095,9.025c16.106,0,29.209-13.104,29.209-29.21
	C306.303,304.645,302.67,301.013,298.189,301.013z M158.567,258.572c-11.515,0-20.884,9.369-20.884,20.883
	c0,4.482,3.633,8.115,8.115,8.115c4.482,0,8.115-3.633,8.115-8.115c0-2.566,2.088-4.654,4.655-4.654
	c2.566,0,4.655,2.088,4.655,4.654c0,4.482,3.633,8.115,8.115,8.115c4.482,0,8.115-3.633,8.115-8.115
	C179.45,267.941,170.082,258.572,158.567,258.572z M462.816,224.791c0.193-2.265,0.289-4.542,0.289-6.809
	c0-43.933-35.743-79.676-79.676-79.676c-6.813,0-13.548,0.863-20.099,2.572c-24.398-38.006-66.8-61.357-112.184-61.357
	c-56.055,0-105.525,34.618-124.866,86.736c-33.168,1.691-64.107,15.488-87.645,39.216C13.72,230.585,0,263.898,0,299.275
	c0,73.45,59.755,133.205,133.203,133.205h264.862C460.889,432.48,512,381.368,512,318.545
	C512,280.786,493.71,246.116,462.816,224.791z M398.065,416.25H133.203c-64.499,0-116.974-52.474-116.974-116.975
	c0-31.066,12.049-60.32,33.926-82.371c21.864-22.04,50.994-34.323,82.025-34.589c3.494-0.029,6.576-2.293,7.652-5.617
	c15.659-48.417,60.392-80.946,111.313-80.946c41.763,0,80.651,22.519,101.49,58.77c1.95,3.391,6.042,4.909,9.73,3.611
	c6.777-2.386,13.864-3.595,21.063-3.595c34.985,0,63.447,28.462,63.447,63.447c0,3.213-0.243,6.45-0.724,9.618
	c-0.485,3.197,0.974,6.377,3.714,8.093c28.745,18.012,45.906,48.985,45.906,82.852C495.77,372.419,451.94,416.25,398.065,416.25z
	 M353.433,258.572c-11.515,0-20.884,9.369-20.884,20.883c0,4.482,3.633,8.115,8.115,8.115c4.482,0,8.115-3.633,8.115-8.115
	c0-2.566,2.088-4.654,4.655-4.654c2.566,0,4.655,2.088,4.655,4.654c0,4.482,3.633,8.115,8.115,8.115
	c4.482,0,8.115-3.633,8.115-8.115C374.317,267.941,364.948,258.572,353.433,258.572z"/>
<g>
</g>
<g>
</g>
<g>
</g>
<g>
</g>
<g>
</g>
<g>
</g>
<g>
</g>
<g>
</g>
<g>
</g>
<g>
</g>
<g>
</g>
<g>
</g>
<g>
</g>
<g>
</g>
<g>
</g>
</svg>
