<svg height="60" viewBox="0 0 60 60" width="60" xmlns="http://www.w3.org/2000/svg"><g id="Page-1" fill="none" fill-rule="evenodd"><g id="012---Windy" fill-rule="nonzero" transform="translate(-1)"><path id="Shape" d="m47 43c6.5341907.0020691 12.0545686-4.8463342 12.8959036-11.3261341.841335-6.4798-3.2578432-12.5772031-9.5759036-14.2438659 1.5306136-3.7142409.4142979-7.99312837-2.735746-10.48623614-3.150044-2.49310777-7.5709395-2.5966556-10.834254-.25376386-3.6250275-4.57607937-9.5757596-6.63323921-15.2529862-5.27293623-5.6772267 1.36030299-10.0494811 5.89092219-11.2070138 11.61293623-4.54729743.3513387-8.11292697 4.0486572-8.29918917 8.6057022s3.06573315 8.5330235 7.56918917 9.2542978c-1.02295352 2.7602694-.62924494 5.8465305 1.0539151 8.261586 1.6831601 2.4150555 4.4423623 3.8526984 7.3860849 3.848414h23z" fill="#cfd8dc"/><path id="Shape" d="m50.32 17.43c1.2544864-3.0281938.7616487-6.4991324-1.2862039-9.0584279-2.0478526-2.55929555-5.3261965-3.80137614-8.5557961-3.2415721 2.7042512.44710637 5.0567428 2.10361398 6.3891616 4.49892994s1.4991541 5.26767276.4528384 7.80107006c6.3143969 1.665678 10.413086 7.7572741 9.5772216 14.233957-.8358644 6.476683-6.346829 11.3280813-12.8772216 11.336043h2.98c6.5341907.0020691 12.0545686-4.8463342 12.8959036-11.3261341.841335-6.4798-3.2578432-12.5772031-9.5759036-14.2438659z" fill="#7f8e94"/><circle id="Oval" cx="45" cy="33" fill="#f44335" r="4"/><path id="Shape" d="m17 40h-1c-.5522847 0-1-.4477153-1-1s.4477153-1 1-1h1c.5522847 0 1 .4477153 1 1s-.4477153 1-1 1z" fill="#7f8e94"/><path id="Shape" d="m28 40h-7c-.5522847 0-1-.4477153-1-1s.4477153-1 1-1h7c.5522847 0 1 .4477153 1 1s-.4477153 1-1 1z" fill="#7f8e94"/><g fill="#000"><path id="Shape" d="m51.608 16.777c1.1378142-3.931043-.2344216-8.15864607-3.4640412-10.67206557s-7.6647563-2.8053467-11.1959588-.73693443c-3.0243665-3.42567385-7.3783345-5.38182554-11.948-5.368-7.3362796.02002654-13.7270312 5.00743838-15.529 12.119-4.65665209.7120028-8.18492568 4.577395-8.47020955 9.279519-.28528388 4.7021239 2.74979342 8.965723 7.28620955 10.235481-.72343774 2.9807106-.03980088 6.128562 1.8548307 8.5406916 1.8946316 2.4121295 4.7909251 3.8220274 7.8581693 3.8253084h23v-2h-23c-2.4805917-.0017141-4.8200559-1.1540446-6.333351-3.1195664-1.5132952-1.9655218-2.02920063-4.5218472-1.396649-6.9204336.242.018.483.04.73.04 1.0749565.0009161 2.1430178-.171635 3.163-.511.3394023-.1128959.5927937-.398285.6647242-.748664.0719304-.350379-.0485282-.712517-.3160001-.95-.2674719-.2374831-.6413218-.3142319-.9807241-.201336-3.4313662 1.1412288-7.20165421-.161291-9.19684523-3.1772304-1.99519102-3.0159393-1.71913387-6.9953139.67338486-9.7068691 2.39251874-2.7115552 6.30654297-3.480999 9.54746037-1.8769005.3203279.1621467.7029956.1401275 1.0026105-.0576916.299615-.1978191.4701885-.5410743.446912-.8993475s-.2368302-.6765722-.5595225-.8339609c-1.2103342-.5955064-2.5289619-.9391117-3.876-1.01 1.7777256-5.93722349 7.2333676-10.01016828 13.431-10.027 4.2775589-.01241527 8.3223604 1.94635316 10.965 5.31.008.009.02.014.028.023.7615051.96323276 1.3932378 2.02228444 1.879 3.15.1261307.3484076.4345731.5985117.8015246.6499257s.7322523-.1042913.949278-.4046188c.2170258-.3003275.2501962-.6960402.0861974-1.0283069-.4096768-.9552042-.9120834-1.86790947-1.5-2.725 1.1622302-.63695622 2.4656757-.97218686 3.791-.975 2.5196543.00324996 4.8907687 1.19247958 6.4001694 3.20999731 1.5094007 2.01751769 1.980955 4.62789849 1.2728306 7.04600269-2.7082433-.5201931-5.5095413-.2358221-8.058.818-.3395636.1307825-.5812864.4356922-.6311527.7961375-.0498664.3604454.0999952.7195294.3912977.93759.2913024.2180606.6780629.2606764 1.009855.1112725 2.415823-.9947355 5.0870448-1.1882159 7.621-.552.022.007.038.025.06.03 5.4983121 1.445252 9.2279476 6.5503689 8.9332481 12.2278104s-4.5328506 10.3689737-10.1512481 11.2371896l.3 1.976c6.3551224-.9816423 11.2243049-6.1663364 11.8055339-12.570505.5812291-6.4041687-3.2749783-12.3807611-9.3495339-14.490495z"/><path id="Shape" d="m17.183 15.384c-.4194577.3592625-.4682585.9905389-.109 1.41.4260252.4966927.7900333 1.0433765 1.084 1.628.1607695.3193954.4797221.5287595.8367114.5492267.3569894.0204673.6977802-.1510718.8940001-.45.1962198-.2989282.218058-.6798313.0572885-.9992267-.3668884-.7303351-.8212227-1.4133477-1.353-2.034-.3607147-.4179349-.9918697-.4644882-1.41-.104z"/><path id="Shape" d="m53.832 23.445c-.1471733-.2206869-.3759984-.3738581-.6361213-.4258077-.2601229-.0519495-.5302285.0015795-.7508787.1488077l-3 2c-.2781551.1854732-.4452244.4976789-.4452244.832s.1670693.6465268.4452244.832l3 2c.297245.1982824.6776931.2229246.9980332.0646441s.5319049-.4754371.555-.832-.1457882-.6983617-.4430332-.8966441l-1.755-1.168 1.752-1.168c.2211743-.1467018.3749585-.3753094.4274774-.6354656s-.0005358-.5305193-.1474774-.7515344z"/><path id="Shape" d="m36.168 28.555c.1471733.2206869.3759984.3738581.6361213.4258077.2601229.0519495.5302285-.0015795.7508787-.1488077l3-2c.2781551-.1854732.4452244-.4976789.4452244-.832s-.1670693-.6465268-.4452244-.832l-3-2c-.297245-.1982824-.6776931-.2229246-.9980331-.0646441-.3203401.1582805-.5319049.4754371-.555.832s.1457881.6983617.4430331.8966441l1.755 1.168-1.752 1.168c-.2211743.1467018-.3749585.3753094-.4274774.6354656s.0005358.5305193.1474774.7515344z"/><path id="Shape" d="m45 38c2.7614237 0 5-2.2385763 5-5s-2.2385763-5-5-5-5 2.2385763-5 5c.0033061 2.7600532 2.2399468 4.9966939 5 5zm0-8c1.6568542 0 3 1.3431458 3 3s-1.3431458 3-3 3-3-1.3431458-3-3 1.3431458-3 3-3z"/></g><path id="Shape" d="m52 56c-2.209139 0-4-1.790861-4-4v-13c0-.5522847.4477153-1 1-1s1 .4477153 1 1v13c0 1.1045695.8954305 2 2 2s2-.8954305 2-2-.8954305-2-2-2c-.5522847 0-1-.4477153-1-1s.4477153-1 1-1c2.209139 0 4 1.790861 4 4s-1.790861 4-4 4z" fill="#02a9f4"/><path id="Shape" d="m38 56c-2.209139 0-4-1.790861-4-4s1.790861-4 4-4c.5522847 0 1 .4477153 1 1s-.4477153 1-1 1c-1.1045695 0-2 .8954305-2 2s.8954305 2 2 2 2-.8954305 2-2v-13c0-.5522847.4477153-1 1-1s1 .4477153 1 1v13c0 2.209139-1.790861 4-4 4z" fill="#02a9f4"/><path id="Shape" d="m45 60c-.5522847 0-1-.4477153-1-1v-18c0-.5522847.4477153-1 1-1s1 .4477153 1 1v18c0 .5522847-.4477153 1-1 1z" fill="#02a9f4"/></g></g></svg>