<?xml version="1.0" encoding="iso-8859-1"?>
<!-- Generator: Adobe Illustrator 19.0.0, SVG Export Plug-In . SVG Version: 6.00 Build 0)  -->
<svg version="1.1" id="Capa_1" xmlns="http://www.w3.org/2000/svg" xmlns:xlink="http://www.w3.org/1999/xlink" x="0px" y="0px"
	 viewBox="0 0 511.999 511.999" style="enable-background:new 0 0 511.999 511.999;" xml:space="preserve">
<path style="fill:#E8E8E8;" d="M430.321,122.404c-9.273-34.422-40.692-59.763-78.044-59.763c-8.654,0-16.984,1.375-24.801,3.892
	C304.189,30.986,264.012,7.5,218.342,7.5c-66.12,0-120.738,49.221-129.228,113.019C44.407,130,10.859,169.693,10.859,217.226
	c0,54.601,44.263,98.864,98.864,98.864h292.554c54.601,0,98.864-44.263,98.864-98.864
	C501.141,172.367,471.262,134.493,430.321,122.404z"/>
<path style="opacity:0.05;enable-background:new    ;" d="M444.931,128.023c14.53,17.208,23.3,39.436,23.3,63.723
	c0,54.601-44.263,98.864-98.864,98.864H76.813c-15.281,0-29.752-3.469-42.67-9.659c18.135,21.487,45.261,35.139,75.579,35.139
	h292.554c54.601,0,98.864-44.263,98.864-98.864C501.141,177.901,478.177,143.948,444.931,128.023z"/>
<g>
	<path style="fill:#9BD3E0;" d="M115.175,353.618c3.626-4.61,10.615-4.61,14.241,0c11.782,14.979,34.049,46.457,34.049,70.43
		c0,22.737-18.432,41.17-41.169,41.17s-41.17-18.432-41.17-41.17C81.126,400.075,103.392,368.596,115.175,353.618z"/>
	<path style="fill:#9BD3E0;" d="M378.743,343.006c3.626-4.61,10.615-4.61,14.241,0c11.782,14.979,34.049,46.457,34.049,70.43
		c0,22.737-18.432,41.17-41.17,41.17c-22.737,0-41.17-18.432-41.17-41.17C344.696,389.463,366.962,357.985,378.743,343.006z"/>
	<path style="fill:#9BD3E0;" d="M247.919,392.901c3.626-4.61,10.615-4.61,14.241,0c11.782,14.979,34.049,46.457,34.049,70.43
		c0,22.737-18.432,41.17-41.17,41.17c-22.737,0-41.17-18.432-41.17-41.17C213.87,439.358,236.136,407.879,247.919,392.901z"/>
</g>
<path style="opacity:0.05;enable-background:new    ;" d="M129.415,353.617c-1.877-2.386-4.654-3.526-7.4-3.442
	c12.108,16.448,28.595,42.629,28.595,63.26c0,22.737-18.432,41.169-41.17,41.169c-6.946,0-13.485-1.727-19.225-4.765
	c7.546,9.373,19.108,15.376,32.078,15.376c22.737,0,41.169-18.432,41.169-41.17C163.464,400.075,141.199,368.596,129.415,353.617z"
	/>
<path style="opacity:0.05;enable-background:new    ;" d="M262.161,392.901c-1.877-2.386-4.654-3.526-7.4-3.442
	c12.108,16.448,28.595,42.629,28.595,63.26c0,22.737-18.432,41.169-41.17,41.169c-6.946,0-13.485-1.727-19.225-4.765
	c7.546,9.373,19.108,15.376,32.078,15.376c22.737,0,41.17-18.432,41.17-41.17C296.21,439.358,273.943,407.879,262.161,392.901z"/>
<path style="opacity:0.05;enable-background:new    ;" d="M392.986,343.006c-1.877-2.386-4.654-3.526-7.4-3.442
	c12.108,16.448,28.595,42.629,28.595,63.26c0,22.737-18.432,41.169-41.17,41.169c-6.946,0-13.485-1.727-19.225-4.765
	c7.546,9.373,19.108,15.376,32.078,15.376c22.737,0,41.17-18.432,41.17-41.17C427.035,389.463,404.768,357.984,392.986,343.006z"/>
<g style="opacity:0.3;">
	<ellipse style="fill:#F15B70;" cx="181.809" cy="196.18" rx="31.759" ry="13.78"/>
	<ellipse style="fill:#F15B70;" cx="330.19" cy="196.18" rx="31.759" ry="13.78"/>
</g>
<path d="M255.039,381.943c-5.112,0-9.856,2.304-13.016,6.321c-13.315,16.928-35.654,49.19-35.654,75.066
	c0,26.836,21.833,48.669,48.669,48.669c26.837,0,48.67-21.833,48.67-48.669c0-25.878-22.339-58.139-35.654-75.066
	C264.896,384.247,260.152,381.943,255.039,381.943z M255.039,497c-18.565,0-33.669-15.104-33.669-33.669
	c0-22.156,22.689-53.392,32.444-65.793c0.386-0.491,0.88-0.594,1.226-0.594s0.839,0.103,1.226,0.595
	c9.755,12.4,32.444,43.636,32.444,65.793C288.71,481.896,273.605,497,255.039,497z M122.295,342.66
	c-5.112,0-9.856,2.304-13.016,6.321c-13.315,16.928-35.654,49.19-35.654,75.066c0,7.38,1.612,14.473,4.792,21.08
	c1.796,3.732,6.277,5.302,10.01,3.506c3.732-1.796,5.302-6.278,3.506-10.01c-2.195-4.562-3.308-9.466-3.308-14.576
	c0-22.156,22.689-53.392,32.444-65.793c0.386-0.491,0.88-0.594,1.226-0.594s0.839,0.103,1.226,0.595
	c9.754,12.4,32.443,43.635,32.443,65.792c0,18.565-15.104,33.669-33.669,33.669c-4.073,0-8.051-0.717-11.823-2.132
	c-3.877-1.455-8.201,0.51-9.656,4.389c-1.455,3.878,0.51,8.202,4.389,9.656c5.462,2.049,11.213,3.087,17.091,3.087
	c26.836,0,48.669-21.833,48.669-48.669c0-25.878-22.338-58.14-35.654-75.066C132.15,344.964,127.407,342.66,122.295,342.66z
	 M385.865,332.048c-5.112,0-9.856,2.304-13.015,6.32c-13.316,16.927-35.654,49.188-35.654,75.067
	c0,26.837,21.833,48.67,48.669,48.67s48.669-21.833,48.669-48.67c0-25.876-22.338-58.139-35.654-75.066
	C395.721,334.352,390.977,332.048,385.865,332.048z M385.865,447.105c-18.565,0-33.669-15.104-33.669-33.67
	c0-22.157,22.689-53.392,32.443-65.792l0,0c0.386-0.491,0.88-0.594,1.226-0.594s0.839,0.103,1.226,0.594
	c9.755,12.401,32.444,43.637,32.444,65.793C419.535,432.001,404.431,447.105,385.865,447.105z M337.694,165.523v-12.316
	c0-4.142-3.358-7.5-7.5-7.5s-7.5,3.358-7.5,7.5v12.316c0,4.142,3.358,7.5,7.5,7.5S337.694,169.665,337.694,165.523z
	 M442.107,299.476c-12.464,6.048-25.865,9.114-39.83,9.114H109.723c-50.379,0-91.364-40.986-91.364-91.364
	c0-21.061,7.338-41.612,20.663-57.868c13.147-16.039,31.49-27.226,51.649-31.501c3.105-0.659,5.46-3.201,5.879-6.348
	c2.208-16.586,7.687-32.281,16.286-46.647c2.127-3.554,0.971-8.16-2.583-10.287c-3.555-2.127-8.16-0.971-10.287,2.583
	c-8.763,14.64-14.641,30.51-17.505,47.241c-21.463,5.691-40.855,18.145-55.04,35.45c-15.517,18.93-24.062,42.858-24.062,67.378
	c0,58.649,47.714,106.364,106.364,106.364h292.555c16.253,0,31.856-3.573,46.378-10.619c3.727-1.808,5.282-6.295,3.474-10.022
	C450.321,299.223,445.834,297.667,442.107,299.476z M487.058,152.992c-12.82-16.893-30.696-29.752-50.672-36.532
	c-11.642-36.309-45.647-61.32-84.109-61.32c-7.329,0-14.593,0.904-21.666,2.693C304.706,21.517,263.144,0,218.342,0
	c-37.942,0-73.299,15.091-99.557,42.495c-2.866,2.991-2.765,7.738,0.226,10.604c2.99,2.866,7.738,2.766,10.604-0.226
	C153.018,28.45,184.529,15,218.342,15c41.583,0,80.035,20.801,102.86,55.643c1.851,2.824,5.36,4.064,8.573,3.029
	c7.274-2.343,14.844-3.531,22.501-3.531c33.088,0,62.203,22.293,70.802,54.213c0.678,2.519,2.616,4.503,5.118,5.242
	c18.514,5.467,35.174,16.997,46.912,32.464c12.124,15.976,18.532,35.052,18.532,55.165c0,25.225-10.056,48.708-28.315,66.123
	c-2.998,2.859-3.11,7.607-0.251,10.604c1.474,1.545,3.449,2.324,5.428,2.324c1.86,0,3.723-0.688,5.175-2.073
	c21.256-20.274,32.963-47.612,32.963-76.978C508.641,193.81,501.178,171.599,487.058,152.992z M189.305,165.523v-12.316
	c0-4.142-3.358-7.5-7.5-7.5s-7.5,3.358-7.5,7.5v12.316c0,4.142,3.358,7.5,7.5,7.5S189.305,169.665,189.305,165.523z M255.999,182.48
	c9.665,0,18.855-4.186,25.215-11.484c2.721-3.123,2.396-7.86-0.727-10.582c-3.122-2.721-7.861-2.396-10.582,0.727
	c-3.511,4.028-8.58,6.339-13.907,6.339c-5.327,0-10.396-2.311-13.907-6.339c-2.721-3.124-7.459-3.448-10.582-0.727
	s-3.448,7.459-0.727,10.582C237.145,178.294,246.335,182.48,255.999,182.48z"/>
<g>
</g>
<g>
</g>
<g>
</g>
<g>
</g>
<g>
</g>
<g>
</g>
<g>
</g>
<g>
</g>
<g>
</g>
<g>
</g>
<g>
</g>
<g>
</g>
<g>
</g>
<g>
</g>
<g>
</g>
</svg>
